<svg xmlns="http://www.w3.org/2000/svg" viewBox="0 0 1200 300" role="img" aria-labelledby="title desc">
  <title id="title">MADE Healthcare</title>
  <desc id="desc">MADE Healthcare shield and heart medical logo</desc>
  <defs>
    <linearGradient id="shield" x1="0" y1="0" x2="1" y2="1">
      <stop offset="0" stop-color="#0c4f8a"/>
      <stop offset=".48" stop-color="#0b91a7"/>
      <stop offset="1" stop-color="#58d0bf"/>
    </linearGradient>
    <linearGradient id="gold" x1="0" y1="0" x2="1" y2="1">
      <stop offset="0" stop-color="#d7b36b"/>
      <stop offset="1" stop-color="#b78342"/>
    </linearGradient>
    <linearGradient id="word" x1="0" y1="0" x2="1" y2="0">
      <stop offset="0" stop-color="#123b68"/>
      <stop offset=".58" stop-color="#155f91"/>
      <stop offset="1" stop-color="#16a7ae"/>
    </linearGradient>
    <filter id="shadow" x="-20%" y="-20%" width="140%" height="140%">
      <feDropShadow dx="0" dy="7" stdDeviation="7" flood-color="#0b3556" flood-opacity=".18"/>
    </filter>
  </defs>
  <g transform="translate(28 22)" filter="url(#shadow)">
    <path d="M125 8C84 35 47 45 20 49v82c0 66 38 105 105 139 67-34 105-73 105-139V49c-27-4-64-14-105-41Z" fill="#fff" stroke="url(#shield)" stroke-width="13"/>
    <path d="M125 22c-34 23-67 32-91 36v72c0 53 29 86 91 120 62-34 91-67 91-120V58c-24-4-57-13-91-36Z" fill="none" stroke="url(#gold)" stroke-width="4" opacity=".9"/>
    <path d="M125 42v46M102 65h46" stroke="url(#shield)" stroke-width="18" stroke-linecap="round"/>
    <path d="M125 157c-8-17-30-31-49-15-18 15-15 40 2 56l47 43 47-43c17-16 20-41 2-56-19-16-41-2-49 15Z" fill="none" stroke="url(#shield)" stroke-width="13" stroke-linejoin="round"/>
  </g>
  <g transform="translate(300 62)">
    <text x="0" y="72" font-family="Manrope, Arial, sans-serif" font-size="92" font-weight="800" letter-spacing="-3" fill="url(#word)">MADE</text>
    <text x="8" y="154" font-family="Manrope, Arial, sans-serif" font-size="67" font-weight="800" letter-spacing="2" fill="#123b68">HEALTHCARE</text>
    <rect x="9" y="176" width="535" height="5" rx="2.5" fill="url(#gold)" opacity=".9"/>
    <text x="9" y="214" font-family="DM Sans, Arial, sans-serif" font-size="24" font-weight="700" letter-spacing="4.5" fill="#16847e">CARE. COMMUNITY. COMPASSION.</text>
  </g>
</svg>
